<svg xmlns="http://www.w3.org/2000/svg" viewBox="0 0 480 270" width="480" height="270" aria-hidden="true">
  <defs>
    <linearGradient id="g" gradientTransform="rotate(35)">
      <stop offset="0%" stop-color="#330d4d"/>
      <stop offset="100%" stop-color="#7b3fb5"/>
    </linearGradient>
    <pattern id="p" width="30" height="30" patternUnits="userSpaceOnUse">
      <path d="M30 0H0V30" fill="none" stroke="#dfa8ff" stroke-opacity=".12" stroke-width="1"/>
    </pattern>
    <linearGradient id="v" x1="0" y1="0" x2="0" y2="1">
      <stop offset="55%" stop-color="#000" stop-opacity="0"/>
      <stop offset="100%" stop-color="#000" stop-opacity=".30"/>
    </linearGradient>
  </defs>
  <rect width="480" height="270" fill="url(#g)"/>
  <rect width="480" height="270" fill="url(#p)"/>
  <circle cx="436" cy="186" r="84" fill="#dfa8ff" fill-opacity="0.10"/>
  <circle cx="280" cy="108" r="82" fill="#dfa8ff" fill-opacity="0.08"/>
  <rect x="44" y="215" width="26" height="43" rx="4" fill="#dfa8ff" fill-opacity="0.12"/>
  <rect x="88" y="222" width="35" height="47" rx="4" fill="#dfa8ff" fill-opacity="0.16"/>
  <rect x="135" y="177" width="18" height="80" rx="4" fill="#dfa8ff" fill-opacity="0.11"/>
  <rect x="164" y="140" width="24" height="130" rx="4" fill="#dfa8ff" fill-opacity="0.17"/>
  <rect x="201" y="197" width="41" height="68" rx="4" fill="#dfa8ff" fill-opacity="0.19"/>
  <rect x="251" y="205" width="42" height="49" rx="4" fill="#dfa8ff" fill-opacity="0.17"/>
  <path d="M0 86 C 160 46, 320 206, 480 166" fill="none" stroke="#dfa8ff" stroke-opacity=".22" stroke-width="2"/>
  <rect width="480" height="270" fill="url(#v)"/>
</svg>
