<svg xmlns="http://www.w3.org/2000/svg" viewBox="0 0 480 270" width="480" height="270" aria-hidden="true">
  <defs>
    <linearGradient id="g" gradientTransform="rotate(37)">
      <stop offset="0%" stop-color="#062353"/>
      <stop offset="100%" stop-color="#1e5fc4"/>
    </linearGradient>
    <pattern id="p" width="30" height="30" patternUnits="userSpaceOnUse">
      <path d="M30 0H0V30" fill="none" stroke="#8cc0ff" stroke-opacity=".12" stroke-width="1"/>
    </pattern>
    <linearGradient id="v" x1="0" y1="0" x2="0" y2="1">
      <stop offset="55%" stop-color="#000" stop-opacity="0"/>
      <stop offset="100%" stop-color="#000" stop-opacity=".30"/>
    </linearGradient>
  </defs>
  <rect width="480" height="270" fill="url(#g)"/>
  <rect width="480" height="270" fill="url(#p)"/>
  <circle cx="280" cy="56" r="60" fill="#8cc0ff" fill-opacity="0.12"/>
  <circle cx="228" cy="108" r="89" fill="#8cc0ff" fill-opacity="0.10"/>
  <rect x="59" y="208" width="22" height="51" rx="4" fill="#8cc0ff" fill-opacity="0.16"/>
  <rect x="97" y="195" width="43" height="72" rx="4" fill="#8cc0ff" fill-opacity="0.17"/>
  <rect x="154" y="202" width="30" height="54" rx="4" fill="#8cc0ff" fill-opacity="0.14"/>
  <rect x="192" y="176" width="40" height="90" rx="4" fill="#8cc0ff" fill-opacity="0.14"/>
  <rect x="248" y="175" width="33" height="74" rx="4" fill="#8cc0ff" fill-opacity="0.16"/>
  <rect x="301" y="150" width="18" height="108" rx="4" fill="#8cc0ff" fill-opacity="0.12"/>
  <rect x="328" y="182" width="42" height="88" rx="4" fill="#8cc0ff" fill-opacity="0.10"/>
  <path d="M0 162 C 160 122, 320 119, 480 79" fill="none" stroke="#8cc0ff" stroke-opacity=".22" stroke-width="2"/>
  <rect width="480" height="270" fill="url(#v)"/>
</svg>
