<svg xmlns="http://www.w3.org/2000/svg" viewBox="0 0 480 270" width="480" height="270" aria-hidden="true">
  <defs>
    <linearGradient id="g" gradientTransform="rotate(67)">
      <stop offset="0%" stop-color="#0d1a43"/>
      <stop offset="100%" stop-color="#3550a8"/>
    </linearGradient>
    <pattern id="p" width="30" height="30" patternUnits="userSpaceOnUse">
      <path d="M30 0H0V30" fill="none" stroke="#a8bae2" stroke-opacity=".12" stroke-width="1"/>
    </pattern>
    <linearGradient id="v" x1="0" y1="0" x2="0" y2="1">
      <stop offset="55%" stop-color="#000" stop-opacity="0"/>
      <stop offset="100%" stop-color="#000" stop-opacity=".30"/>
    </linearGradient>
  </defs>
  <rect width="480" height="270" fill="url(#g)"/>
  <rect width="480" height="270" fill="url(#p)"/>
  <circle cx="202" cy="160" r="86" fill="#a8bae2" fill-opacity="0.10"/>
  <circle cx="306" cy="82" r="67" fill="#a8bae2" fill-opacity="0.07"/>
  <rect x="37" y="195" width="23" height="74" rx="4" fill="#a8bae2" fill-opacity="0.13"/>
  <rect x="74" y="188" width="21" height="61" rx="4" fill="#a8bae2" fill-opacity="0.14"/>
  <rect x="116" y="128" width="30" height="131" rx="4" fill="#a8bae2" fill-opacity="0.19"/>
  <rect x="156" y="171" width="23" height="85" rx="4" fill="#a8bae2" fill-opacity="0.16"/>
  <rect x="195" y="226" width="27" height="42" rx="4" fill="#a8bae2" fill-opacity="0.15"/>
  <rect x="244" y="207" width="19" height="41" rx="4" fill="#a8bae2" fill-opacity="0.13"/>
  <path d="M0 209 C 160 169, 320 119, 480 79" fill="none" stroke="#a8bae2" stroke-opacity=".22" stroke-width="2"/>
  <rect width="480" height="270" fill="url(#v)"/>
</svg>
