<svg xmlns="http://www.w3.org/2000/svg" viewBox="0 0 480 270" width="480" height="270" aria-hidden="true">
  <defs>
    <linearGradient id="g" gradientTransform="rotate(52)">
      <stop offset="0%" stop-color="#052f38"/>
      <stop offset="100%" stop-color="#0e7d8f"/>
    </linearGradient>
    <pattern id="p" width="30" height="30" patternUnits="userSpaceOnUse">
      <path d="M30 0H0V30" fill="none" stroke="#8ce8f2" stroke-opacity=".12" stroke-width="1"/>
    </pattern>
    <linearGradient id="v" x1="0" y1="0" x2="0" y2="1">
      <stop offset="55%" stop-color="#000" stop-opacity="0"/>
      <stop offset="100%" stop-color="#000" stop-opacity=".30"/>
    </linearGradient>
  </defs>
  <rect width="480" height="270" fill="url(#g)"/>
  <rect width="480" height="270" fill="url(#p)"/>
  <circle cx="176" cy="186" r="84" fill="#8ce8f2" fill-opacity="0.09"/>
  <circle cx="358" cy="212" r="70" fill="#8ce8f2" fill-opacity="0.08"/>
  <rect x="56" y="125" width="29" height="141" rx="4" fill="#8ce8f2" fill-opacity="0.17"/>
  <rect x="104" y="92" width="15" height="155" rx="4" fill="#8ce8f2" fill-opacity="0.12"/>
  <rect x="132" y="215" width="23" height="43" rx="4" fill="#8ce8f2" fill-opacity="0.10"/>
  <rect x="172" y="138" width="20" height="128" rx="4" fill="#8ce8f2" fill-opacity="0.14"/>
  <rect x="206" y="205" width="14" height="52" rx="4" fill="#8ce8f2" fill-opacity="0.19"/>
  <rect x="234" y="176" width="28" height="88" rx="4" fill="#8ce8f2" fill-opacity="0.12"/>
  <path d="M0 91 C 160 51, 320 91, 480 51" fill="none" stroke="#8ce8f2" stroke-opacity=".22" stroke-width="2"/>
  <rect width="480" height="270" fill="url(#v)"/>
</svg>
