<svg xmlns="http://www.w3.org/2000/svg" viewBox="0 0 480 270" width="480" height="270" aria-hidden="true">
  <defs>
    <linearGradient id="g" gradientTransform="rotate(48)">
      <stop offset="0%" stop-color="#0d1a43"/>
      <stop offset="100%" stop-color="#3550a8"/>
    </linearGradient>
    <pattern id="p" width="30" height="30" patternUnits="userSpaceOnUse">
      <path d="M30 0H0V30" fill="none" stroke="#a8bae2" stroke-opacity=".12" stroke-width="1"/>
    </pattern>
    <linearGradient id="v" x1="0" y1="0" x2="0" y2="1">
      <stop offset="55%" stop-color="#000" stop-opacity="0"/>
      <stop offset="100%" stop-color="#000" stop-opacity=".30"/>
    </linearGradient>
  </defs>
  <rect width="480" height="270" fill="url(#g)"/>
  <rect width="480" height="270" fill="url(#p)"/>
  <circle cx="280" cy="82" r="108" fill="#a8bae2" fill-opacity="0.08"/>
  <circle cx="176" cy="30" r="70" fill="#a8bae2" fill-opacity="0.09"/>
  <rect x="42" y="142" width="43" height="101" rx="4" fill="#a8bae2" fill-opacity="0.13"/>
  <rect x="95" y="150" width="26" height="110" rx="4" fill="#a8bae2" fill-opacity="0.11"/>
  <rect x="133" y="125" width="43" height="138" rx="4" fill="#a8bae2" fill-opacity="0.10"/>
  <rect x="193" y="185" width="38" height="62" rx="4" fill="#a8bae2" fill-opacity="0.13"/>
  <rect x="248" y="180" width="25" height="72" rx="4" fill="#a8bae2" fill-opacity="0.16"/>
  <rect x="281" y="130" width="31" height="135" rx="4" fill="#a8bae2" fill-opacity="0.10"/>
  <rect x="327" y="199" width="30" height="42" rx="4" fill="#a8bae2" fill-opacity="0.19"/>
  <path d="M0 64 C 160 24, 320 169, 480 129" fill="none" stroke="#a8bae2" stroke-opacity=".22" stroke-width="2"/>
  <rect width="480" height="270" fill="url(#v)"/>
</svg>
